<?xml version="1.0" encoding="utf-8"?>
<!-- Generator: Adobe Illustrator 23.1.0, SVG Export Plug-In . SVG Version: 6.00 Build 0)  -->
<svg version="1.1" id="Layer_1" xmlns="http://www.w3.org/2000/svg" xmlns:xlink="http://www.w3.org/1999/xlink" x="0px" y="0px"
	 viewBox="0 0 511.4 511.4" style="enable-background:new 0 0 511.4 511.4;" xml:space="preserve">
<style type="text/css">
	.st0{fill:url(#SVGID_1_);}
	.st1{fill:#FFFFFF;}
	.st2{fill:url(#SVGID_2_);}
</style>
<g>
	<linearGradient id="SVGID_1_" gradientUnits="userSpaceOnUse" x1="33.802" y1="342.3285" x2="510.2414" y2="156.3873">
		<stop  offset="1.385225e-07" style="stop-color:#8E2DE2"/>
		<stop  offset="1" style="stop-color:#4A00E0"/>
	</linearGradient>
	<path class="st0" d="M398.9,0H112.6C50.4,0,0,50.4,0,112.6v286.3C0,461,50.4,511.4,112.6,511.4h286.3
		c62.2,0,112.6-50.4,112.6-112.6V112.6C511.4,50.4,461,0,398.9,0z M241.6,363.8c0,2-1.6,3.6-3.6,3.6H95.7c-2,0-3.6-1.6-3.6-3.6
		v-35.3c0-1.7,1.2-3.2,2.9-3.5l15.3-3v0c5.8-3.2,18.4-5.5,33.4-5.9H238c2,0,3.6,1.6,3.6,3.6V363.8z M241.6,276.5
		c0,2-1.6,3.6-3.6,3.6h-81.9c-19.1,0-23.9,4.8-23.9,14.9c0,6,3.6,13.2,11.4,20.9h0c-1-1-2-1.9-2.9-2.9c-0.7-0.7-1.7-1.1-2.7-1.1
		c-12,0.4-22.4,2-28.9,4.3c-1.4,0.5-2.8,0.1-3.8-1c-0.7-0.8-1.4-1.6-2-2.4c-0.3-0.3-0.6-0.7-0.9-1.1c-0.9-1.1-1.8-2.2-2.6-3.3
		c-0.3-0.3-0.5-0.7-0.8-1c-0.3-0.4-0.5-0.8-0.8-1.1c-0.6-0.8-1.1-1.6-1.6-2.5c-0.5-0.7-0.9-1.4-1.3-2.2c-0.2-0.4-0.5-0.8-0.7-1.2
		c-0.2-0.4-0.4-0.8-0.6-1.2c-0.2-0.4-0.4-0.8-0.6-1.3c-0.4-0.8-0.8-1.7-1.1-2.6c-0.2-0.4-0.3-0.9-0.5-1.3c-0.2-0.5-0.3-0.9-0.5-1.4
		c-0.3-0.9-0.6-1.8-0.8-2.8c-0.1-0.3-0.1-0.5-0.2-0.8c-0.1-0.3-0.2-0.6-0.2-0.9c0,0,0,0,0-0.1c-0.2-0.9-0.4-1.8-0.5-2.7
		c-0.1-0.5-0.2-0.9-0.2-1.4c0-0.1,0-0.3-0.1-0.4c0-0.3-0.1-0.6-0.1-0.9c0-0.4-0.1-0.8-0.1-1.1c0-0.2,0-0.4,0-0.5
		c0-0.4-0.1-0.8-0.1-1.1c-0.1-0.8-0.1-1.5-0.1-2.3c0-0.6,0-1.3,0-1.9c0-17.7,6.3-29.7,18.2-37.8c1.8-1.2,3.7-2.4,5.8-3.4
		c5.4-3.2,17.2-5.5,31.3-6c1.6,0,3.2-0.1,4.9-0.1c1.7,0,3.3,0,4.9,0.1H238c2,0,3.6,1.6,3.6,3.6V276.5z M241.6,189.2
		c0,2-1.6,3.6-3.6,3.6h-81.9c-19.1,0-23.9,4.8-23.9,14.9c0,3.5,1.3,7.5,3.9,11.8c1.4,2.3-0.1,5.3-2.8,5.5
		c-9.6,0.7-17.8,2.3-22.9,4.4c-1.4,0.6-3,0.2-4-0.9c-9.9-10.7-17.8-22.9-17.8-39.8c0-32.9,23.9-47.2,61-47.2H238
		c2,0,3.6,1.6,3.6,3.6V189.2z M431.2,286c-16.5,16.7-36,25-58.6,25c-3.1,0-7.5-0.3-13-0.8c-1.8-0.2-3.2-1.7-3.2-3.6v-57.2
		c0-2.7,2.9-4.4,5.3-3.2c3.2,1.7,6.5,2.5,9.7,2.5c6.2,0.1,12-2.5,16.2-7c4.4-4.4,6.8-10.4,6.8-16.6c0.1-6.2-2.5-12.1-7-16.4
		c-4.5-4.4-10.5-6.8-16.8-6.8c-15.6,0-23.4,10.8-23.4,32.4v129.6c0,2-1.6,3.6-3.6,3.6h-53.7c-2,0-3.6-1.6-3.6-3.6V232.3
		c0-24.8,6.5-45.1,19.5-60.7c7.8-9.2,17.5-16.6,28.6-21.5c11.1-5.2,23.3-8,35.6-8c24.2,0,44.6,8.1,61.2,24.4
		c16.6,16.3,24.9,36.3,24.9,59.9C456,249.4,447.7,269.3,431.2,286z"/>
</g>
<g>
	<g>
		<path class="st1" d="M456,226.4c0,23-8.3,42.9-24.8,59.6c-16.5,16.7-36,25-58.6,25c-3.1,0-7.5-0.3-13-0.8
			c-1.8-0.2-3.2-1.7-3.2-3.6v-57.2c0-2.7,2.9-4.4,5.3-3.2c3.2,1.7,6.5,2.5,9.7,2.5c6.2,0.1,12-2.5,16.2-7c4.4-4.4,6.8-10.4,6.8-16.6
			c0.1-6.2-2.5-12.1-7-16.4c-4.5-4.4-10.5-6.8-16.8-6.8c-15.6,0-23.4,10.8-23.4,32.4v129.6c0,2-1.6,3.6-3.6,3.6h-53.7
			c-2,0-3.6-1.6-3.6-3.6V232.3c0-24.8,6.5-45.1,19.5-60.7c7.8-9.2,17.5-16.6,28.6-21.5c11.1-5.2,23.3-8,35.6-8
			c24.2,0,44.6,8.1,61.2,24.4C447.7,182.7,456,202.7,456,226.4z"/>
	</g>
	<g>
		<path class="st1" d="M241.6,320.9v44.3c0,2-1.6,3.6-3.6,3.6H95.7c-2,0-3.6-1.6-3.6-3.6v-35.3c0-1.7,1.2-3.2,2.9-3.5l15.3-3v0
			c5.8-3.2,18.4-5.5,33.4-5.9H238C240,317.3,241.6,318.9,241.6,320.9z"/>
	</g>
	<g>
		<path class="st1" d="M241.6,233.6v44.3c0,2-1.6,3.6-3.6,3.6h-81.9c-19.1,0-23.9,4.8-23.9,14.9c0,6,3.6,13.2,11.4,20.9h0
			c-1-1-2-1.9-2.9-2.9c-0.7-0.7-1.7-1.1-2.7-1.1c-12,0.4-22.4,2-28.9,4.3c-1.4,0.5-2.8,0.1-3.8-1c-0.7-0.8-1.4-1.6-2-2.4
			c-0.3-0.3-0.6-0.7-0.9-1.1c-0.9-1.1-1.8-2.2-2.6-3.3c-0.3-0.3-0.5-0.7-0.8-1c-0.3-0.4-0.5-0.8-0.8-1.1c-0.6-0.8-1.1-1.6-1.6-2.5
			c-0.5-0.7-0.9-1.4-1.3-2.2c-0.2-0.4-0.5-0.8-0.7-1.2c-0.2-0.4-0.4-0.8-0.6-1.2c-0.2-0.4-0.4-0.8-0.6-1.3c-0.4-0.8-0.8-1.7-1.1-2.6
			c-0.2-0.4-0.3-0.9-0.5-1.3c-0.2-0.5-0.3-0.9-0.5-1.4c-0.3-0.9-0.6-1.8-0.8-2.8c-0.1-0.3-0.1-0.5-0.2-0.8c-0.1-0.3-0.2-0.6-0.2-0.9
			c0,0,0,0,0-0.1c-0.2-0.9-0.4-1.8-0.5-2.7c-0.1-0.5-0.2-0.9-0.2-1.4c0-0.1,0-0.3-0.1-0.4c0-0.3-0.1-0.6-0.1-0.9
			c0-0.4-0.1-0.8-0.1-1.1c0-0.2,0-0.4,0-0.5c0-0.4-0.1-0.8-0.1-1.1c-0.1-0.8-0.1-1.5-0.1-2.3c0-0.6,0-1.3,0-1.9
			c0-17.7,6.3-29.7,18.2-37.8c1.8-1.2,3.7-2.4,5.8-3.4c5.4-3.2,17.2-5.5,31.3-6H238C240,230,241.6,231.6,241.6,233.6z"/>
	</g>
	<g>
		<path class="st1" d="M241.6,146.3v44.3c0,2-1.6,3.6-3.6,3.6h-81.9c-19.1,0-23.9,4.8-23.9,14.9c0,3.5,1.3,7.5,3.9,11.8
			c1.4,2.3-0.1,5.3-2.8,5.5c-9.6,0.7-17.8,2.3-22.9,4.4c-1.4,0.6-3,0.2-4-0.9c-9.9-10.7-17.8-22.9-17.8-39.8
			c0-32.9,23.9-47.2,61-47.2H238C240,142.7,241.6,144.3,241.6,146.3z"/>
	</g>
</g>
<title>KP</title>
<g>
	<g id="transparent-KP">
		<linearGradient id="SVGID_2_" gradientUnits="userSpaceOnUse" x1="92.17" y1="263.29" x2="153.48" y2="263.29">
			<stop  offset="1.385225e-07" style="stop-color:#FFFFFF"/>
			<stop  offset="1" style="stop-color:#000000"/>
		</linearGradient>
		<path class="st2" d="M148.6,228.6c-1.6,0-3.3,0-4.9,0.1h9.7C151.9,228.6,150.3,228.6,148.6,228.6z M92.2,295.4
			c0.3,0.9,0.7,1.7,1.1,2.6C92.9,297.2,92.5,296.3,92.2,295.4z"/>
	</g>
</g>
</svg>
