<?xml version="1.0" encoding="utf-8"?>
<!-- Generator: Adobe Illustrator 23.1.0, SVG Export Plug-In . SVG Version: 6.00 Build 0)  -->
<svg version="1.1" id="Layer_1" xmlns="http://www.w3.org/2000/svg" xmlns:xlink="http://www.w3.org/1999/xlink" x="0px" y="0px"
	 viewBox="0 0 1080 1080" style="enable-background:new 0 0 1080 1080;" xml:space="preserve">
<style type="text/css">
	.st0{fill:url(#SVGID_1_);}
	.st1{opacity:0.79;}
	.st2{fill:none;stroke:#FFFFFF;stroke-width:3;stroke-miterlimit:10;stroke-dasharray:26.8454,19.8855;}
	.st3{fill:#FFFFFF;}
</style>
<g>
	<linearGradient id="SVGID_1_" gradientUnits="userSpaceOnUse" x1="97.2307" y1="716.0898" x2="1050.076" y2="337.0709">
		<stop  offset="0" style="stop-color:#376AFF"/>
		<stop  offset="1" style="stop-color:#D21AD5"/>
	</linearGradient>
	<path class="st0" d="M935.3,1060H144.5c-68.8,0-124.6-55.8-124.6-124.6V144.6C19.9,75.8,75.7,20,144.5,20h790.8
		c68.8,0,124.6,55.8,124.6,124.6v790.8C1059.9,1004.2,1004.1,1060,935.3,1060z"/>
	<g class="st1">
		<path class="st2" d="M917.8,1012H163c-50.9,0-92.2-41.3-92.2-92.2V165c0-50.9,41.3-92.2,92.2-92.2h754.8
			c50.9,0,92.2,41.3,92.2,92.2v754.8C1010,970.7,968.7,1012,917.8,1012z"/>
	</g>
</g>
<path class="st3" d="M552,123.4h-24.5c-100.6,6.1-181.1,86.8-186.9,187.5v23.4c6,104.7,92.9,187.8,199.2,187.8
	c110.2,0,199.5-89.3,199.5-199.5C739.3,216.4,656.5,129.7,552,123.4z M486.9,393.8c0,9.8-8,17.8-17.8,17.8
	c-9.8,0-17.8-7.9-17.8-17.8V251.9c0-9.8,7.9-17.8,17.8-17.8c4.9,0,9.4,2,12.6,5.2c3.2,3.2,5.2,7.7,5.2,12.6V393.8z M628.8,411.6
	h-88.5c-9.8,0-17.8-7.9-17.8-17.8c0-4.9,2-9.4,5.2-12.6c3.2-3.2,7.7-5.2,12.6-5.2h70.8c9.8,0,17.8,8,17.8,17.8L628.8,411.6z
	 M628.8,340.6h-88.5c-9.8,0-17.8-7.9-17.8-17.8c0-4.9,2-9.4,5.2-12.6c3.2-3.2,7.7-5.2,12.6-5.2h70.8c9.8,0,17.8,8,17.8,17.8
	L628.8,340.6z M628.8,269.7h-88.5c-9.8,0-17.8-7.9-17.8-17.8c0-4.9,2-9.4,5.2-12.6c3.2-3.2,7.7-5.2,12.6-5.2h70.8
	c9.8,0,17.8,8,17.8,17.8L628.8,269.7z"/>
<g>
	<path class="st3" d="M240.6,863.9c0.3,1,0.7,2.2,1.1,3.4c0.4,1.3,0.8,2.6,1.1,4s0.6,2.8,0.9,4.2c0.2,1.4,0.4,2.8,0.4,4
		c0,1.6-0.2,3.2-0.7,4.7c-0.5,1.5-1.1,3-2,4.4c-0.8,1.4-1.8,2.8-3,4s-2.4,2.5-3.8,3.7c-1.4,1.1-2.8,2.2-4.3,3.2s-3.1,1.9-4.6,2.7
		l-2-4.1c2-1,4-2.2,5.9-3.6c1.9-1.3,3.6-2.8,5.1-4.4s2.7-3.3,3.6-5.1c0.9-1.8,1.3-3.6,1.3-5.6c0-1-0.1-2.2-0.3-3.3s-0.5-2.4-0.8-3.6
		c-0.3-1.2-0.7-2.5-1.1-3.7s-0.8-2.4-1.1-3.6L240.6,863.9z"/>
	<path class="st3" d="M251.1,897.4c3-0.6,5.6-1.5,8-2.7s4.4-2.4,6.1-3.9c1.7-1.4,3-2.9,4-4.6c1-1.6,1.6-3.2,1.8-4.8
		c-0.6,0-1.3,0-1.9,0c-0.9,0-2,0-3.1-0.1s-2.4-0.2-3.7-0.4c-1.3-0.2-2.5-0.6-3.6-1c-1.1-0.4-2-1-2.8-1.8c-0.8-0.7-1.4-1.7-1.8-2.8
		c-0.4-1.1-0.6-2.4-0.6-3.9c0-0.9,0.1-1.9,0.3-3c0.2-1,0.5-2.1,0.9-3.1c0.4-1,0.8-2,1.4-2.9c0.5-0.9,1.2-1.7,1.9-2.4
		c0.7-0.7,1.5-1.2,2.4-1.7c0.9-0.4,1.8-0.6,2.9-0.6c1.4,0,2.6,0.3,3.7,0.9c1.1,0.6,2.2,1.3,3,2.3c0.9,1,1.7,2.1,2.4,3.4
		c0.7,1.3,1.3,2.6,1.7,4s0.8,2.8,1.1,4.3c0.3,1.4,0.4,2.8,0.5,4.1h3.5v4.5h-3.7c-0.3,1.9-0.8,3.6-1.5,5.3c-0.7,1.7-1.7,3.2-2.8,4.6
		c-1.1,1.4-2.4,2.7-3.8,3.8c-1.4,1.2-2.9,2.2-4.5,3.1c-1.6,0.9-3.3,1.6-5.1,2.2c-1.8,0.6-3.6,1-5.5,1.3L251.1,897.4z M263.2,862.6
		c-0.7,0-1.4,0.3-2.1,0.9s-1.3,1.3-1.9,2.2c-0.6,0.9-1,1.9-1.3,2.9s-0.5,2-0.5,3c0.1,1,0.4,1.7,0.9,2.4c0.5,0.6,1.1,1.1,1.9,1.5
		c0.8,0.4,1.6,0.7,2.6,0.9c1,0.2,1.9,0.3,2.9,0.4s2,0.1,2.9,0.1c1,0,1.8,0,2.6,0c0-0.9-0.1-1.8-0.2-2.9s-0.4-2.1-0.7-3.1
		s-0.7-2.1-1.2-3.1c-0.5-1-1-1.9-1.6-2.6c-0.6-0.8-1.2-1.4-2-1.8C264.8,862.8,264,862.6,263.2,862.6z"/>
	<path class="st3" d="M303.9,876.9v4.5h-0.6c-1.9,0-3.4-0.4-4.7-1.1c-1.3-0.7-2.4-1.7-3.3-2.8c-0.7,0.7-1.4,1.2-2.2,1.7
		c-0.8,0.5-1.7,0.9-2.8,1.2c-1,0.3-2.2,0.6-3.5,0.7c-1.3,0.2-2.8,0.2-4.5,0.2h-4.4v-4.5h4.4c2,0,3.7-0.2,5.1-0.5s2.5-0.8,3.4-1.4
		c0.9-0.6,1.5-1.4,1.9-2.4c0.4-0.9,0.6-2,0.6-3.3c0-1-0.1-2.1-0.2-3.2c-0.1-1.1-0.4-2.3-0.8-3.7c0.8-0.2,1.6-0.4,2.2-0.6
		c0.7-0.2,1.4-0.4,2.1-0.6c0.2,0.6,0.3,1.2,0.4,1.8s0.2,1.2,0.3,1.9c0.1,0.7,0.2,1.4,0.2,2.1c0.1,0.8,0.2,1.6,0.2,2.6
		c0.1,0.8,0.2,1.6,0.3,2.5s0.5,1.7,0.9,2.4c0.4,0.7,1,1.3,1.7,1.8c0.7,0.5,1.6,0.7,2.7,0.7H303.9z M290.6,849.8l-4.3,4.3l-4.3-4.3
		l4.3-4.3L290.6,849.8z M300.9,849.9l-4.2,4.3l-4.3-4.3l4.3-4.3L300.9,849.9z"/>
	<path class="st3" d="M324.4,876.9v4.5h-0.6c-1.9,0-3.4-0.4-4.7-1.1c-1.3-0.7-2.4-1.7-3.3-2.8c-1.3,1.3-3,2.3-4.9,2.9
		c-1.9,0.6-4.3,1-7.1,1h-1.1v-4.5h1.1c3.5,0,6-0.6,7.5-1.9c1.6-1.3,2.4-3.2,2.4-5.7c0-1-0.1-2.1-0.2-3.2c-0.1-1.1-0.4-2.3-0.8-3.7
		c0.8-0.2,1.6-0.4,2.2-0.6c0.7-0.2,1.4-0.4,2.1-0.6c0.2,0.6,0.3,1.2,0.4,1.8s0.2,1.2,0.3,1.9c0.1,0.7,0.2,1.4,0.2,2.1
		c0.1,0.8,0.2,1.6,0.2,2.6c0.1,0.8,0.2,1.6,0.3,2.5c0.2,0.9,0.5,1.7,0.9,2.4c0.4,0.7,1,1.3,1.7,1.8c0.7,0.5,1.6,0.7,2.7,0.7H324.4z
		 M316.3,850.4l-4.3,4.3l-4.3-4.3l4.3-4.3L316.3,850.4z"/>
	<path class="st3" d="M358.7,876.9v4.5h-0.9c-1.6,0-3-0.2-4.1-0.6c-1.2-0.4-2.1-1.2-2.8-2.3c-1.4,1.7-3.4,2.6-5.8,2.6
		c-1.5,0-3.1-0.3-4.8-1c-1.8-0.7-3.9-1.9-6.2-3.6c-0.7,0.9-1.4,1.7-2.2,2.3c-0.8,0.6-1.6,1.1-2.4,1.5c-0.8,0.4-1.7,0.7-2.7,0.8
		s-1.9,0.2-3,0.2h-0.6v-4.5h0.6c1.5,0,2.7-0.3,3.8-0.8c1.1-0.6,2-1.3,2.8-2.2s1.5-2,2.2-3.1s1.3-2.4,1.9-3.6c0.5-1,1-2,1.6-3
		s1.2-1.9,1.9-2.7s1.5-1.5,2.4-2c0.9-0.5,2-0.8,3.2-0.8c1.7,0,3.1,0.4,4.4,1.2c1.3,0.8,2.3,1.8,3.1,3.1c0.8,1.3,1.4,2.7,1.8,4.2
		c0.3,1.2,0.4,2.5,0.4,3.7c0,0.3,0,0.6,0,1c0,0.7,0.1,1.4,0.3,2c0.2,0.6,0.5,1.2,0.9,1.6s0.9,0.8,1.4,1.1c0.6,0.3,1.2,0.4,1.8,0.4
		H358.7z M336.8,872.8c0.8,0.6,1.7,1.2,2.5,1.6s1.7,0.9,2.5,1.2c0.8,0.3,1.6,0.6,2.3,0.8s1.3,0.3,1.8,0.3c0.2,0,0.4,0,0.6,0
		s0.4-0.1,0.6-0.1c0.6-0.2,1.1-0.6,1.4-1.4c0.4-0.7,0.6-1.5,0.7-2.5c0.1-0.4,0.1-0.9,0.1-1.4c0-0.5-0.1-1.2-0.2-2
		c-0.1-0.8-0.4-1.7-0.8-2.6c-0.4-0.9-1.1-1.7-1.8-2.3c-0.8-0.6-1.7-1-2.8-1.1c-0.1,0-0.1,0-0.2,0c-0.4,0-0.8,0.1-1.2,0.3
		c-0.4,0.2-0.7,0.6-1.1,1.1c-0.4,0.5-0.8,1.1-1.2,1.9c-0.4,0.8-0.9,1.6-1.4,2.7L336.8,872.8z"/>
	<path class="st3" d="M357.6,876.9h2.2c1.5,0,2.7-0.2,3.6-0.6c0.9-0.4,1.6-0.9,2.1-1.6s0.8-1.5,0.9-2.5c0.1-0.8,0.1-1.6,0.1-2.5
		c0-0.3,0-0.5,0-0.8c-0.1-2.3-0.2-4.7-0.3-7c-0.1-2.3-0.2-4.5-0.3-6.6c-0.1-2.1-0.2-4-0.3-5.8c-0.1-1.8-0.2-3.4-0.2-4.8
		c-0.1-1.4-0.1-2.6-0.2-3.5c-0.1-0.9-0.1-1.6-0.1-1.9l4.5-0.5l1.5,30.1c0,0.3,0,0.6,0,0.9c0,1.6-0.2,3.2-0.6,4.6
		c-0.4,1.4-1.1,2.7-2.1,3.7c-1,1.1-2.2,1.9-3.6,2.4c-1.5,0.6-3.2,0.8-5.1,0.8h-2.2V876.9z"/>
	<path class="st3" d="M380.1,881.5c0.2-3.2,0.3-6.2,0.4-8.9c0.1-2.8,0.1-5.5,0.1-8.1c0-3.6-0.1-7-0.2-10c-0.1-3-0.3-5.7-0.5-8
		c-0.2-2.3-0.3-4.2-0.5-5.7s-0.3-2.6-0.4-3.2l4.6-0.7c0.1,0.8,0.2,1.8,0.3,2.9c0.1,1.1,0.2,2.2,0.3,3.5c0.1,1.2,0.2,2.4,0.2,3.7
		c0.1,1.3,0.2,2.4,0.2,3.6c0.1,1.1,0.1,2.1,0.2,3c0,0.9,0.1,1.6,0.1,2.1c0,1.4,0.1,2.8,0.1,4.3s0,3.1,0,4.8c0,2.6,0,5.4-0.1,8.2
		c-0.1,2.8-0.2,5.9-0.4,9.1L380.1,881.5z"/>
	<path class="st3" d="M426.5,877.4c-1.6,0-3.1-0.1-4.5-0.4c-1.4-0.3-2.6-0.7-3.6-1.3c-1-0.6-1.8-1.4-2.4-2.4c-0.6-1-0.9-2.2-0.9-3.6
		c0-1.3,0.3-2.5,0.8-3.6c0.5-1.1,1.3-2.1,2.1-3.1c0.9-0.9,1.8-1.8,2.9-2.6c1.1-0.8,2.1-1.4,3.2-2c1-0.6,2-1.1,2.9-1.5
		c0.9-0.4,1.7-0.7,2.2-0.9l-0.4-4.2l4.6-1c0,0.2,0.1,0.5,0.1,1s0.1,1.1,0.2,1.8c0.1,0.7,0.1,1.4,0.2,2.2c0.1,0.8,0.2,1.5,0.2,2.2
		s0.1,1.3,0.2,1.8c0.1,0.5,0.1,0.8,0.1,1c0.3,2.5,0.6,4.6,0.9,6.2c0.3,1.6,0.5,2.9,0.7,3.8c0.2,1,0.4,1.6,0.5,2.1
		c0.1,0.4,0.2,0.7,0.3,0.8v0c0.3,0.6,0.5,1.1,0.9,1.5c0.3,0.4,0.7,0.7,1.2,0.9c0.5,0.2,1,0.4,1.6,0.5c0.6,0.1,1.2,0.1,2,0.1h0.6v4.5
		h-0.6c-0.7,0-1.6-0.1-2.6-0.2c-1-0.1-1.9-0.4-2.9-0.8h0c-1.5-0.7-2.7-1.9-3.8-3.7C430.5,877.2,428.3,877.4,426.5,877.4z
		 M429.1,861.1c-0.5,0.2-1.1,0.5-1.7,0.8c-0.7,0.3-1.3,0.6-2.1,1c-0.7,0.4-1.4,0.8-2.1,1.3c-0.7,0.5-1.3,1-1.9,1.5
		c-0.6,0.5-1,1.1-1.3,1.7c-0.3,0.6-0.5,1.3-0.5,2c0,0.7,0.2,1.3,0.6,1.8c0.4,0.5,0.9,0.8,1.6,1.1c0.6,0.3,1.4,0.5,2.2,0.6
		c0.8,0.1,1.7,0.2,2.5,0.2c0.9,0,1.8-0.1,2.8-0.2c1-0.1,1.8-0.2,2.5-0.4c-0.3-1.3-0.5-3-0.8-4.9c-0.3-2-0.6-4.2-0.9-6.7L429.1,861.1
		z"/>
	<path class="st3" d="M441.8,876.9h3.4c1.2,0,2.2,0,3.2-0.1c1-0.1,1.9-0.2,2.7-0.5c0.8-0.3,1.5-0.6,2.2-1.1c0.6-0.5,1.2-1.1,1.7-2
		c0.3-0.5,0.5-1.1,0.5-1.8c0-0.2,0-0.4,0-0.6c0-0.6-0.1-1.3-0.2-2c-0.1-0.8-0.3-1.6-0.6-2.6c-0.3-1-0.6-1.9-0.9-2.9
		c-0.3-1-0.7-1.9-1-2.8s-0.7-1.7-1-2.5l4.1-2.1c0.4,0.9,0.8,1.9,1.2,2.9c0.4,1,0.8,2.1,1.2,3.2c0.4,1.1,0.7,2.2,1,3.4
		c0.3,1.2,0.5,2.3,0.6,3.4c0.1,0.6,0.1,1.2,0.1,1.8c0,0.5,0,1.1-0.1,1.9c-0.1,0.8-0.3,1.6-0.7,2.5c-0.6,1.2-1.2,2.3-2.1,3.1
		s-1.7,1.5-2.8,2c-1.1,0.5-2.3,0.8-3.6,1c-1.3,0.2-2.7,0.3-4.3,0.3h-4.6V876.9z M455.4,845.5l-4.3,4.3l-4.3-4.3l4.3-4.3L455.4,845.5
		z"/>
	<path class="st3" d="M466.4,897.4c3-0.6,5.6-1.5,8-2.7s4.4-2.4,6.1-3.9c1.7-1.4,3-2.9,4-4.6c1-1.6,1.6-3.2,1.8-4.8
		c-0.6,0-1.3,0-1.9,0c-0.9,0-2,0-3.1-0.1s-2.4-0.2-3.7-0.4c-1.3-0.2-2.5-0.6-3.6-1c-1.1-0.4-2-1-2.8-1.8c-0.8-0.7-1.4-1.7-1.8-2.8
		c-0.4-1.1-0.6-2.4-0.6-3.9c0-0.9,0.1-1.9,0.3-3c0.2-1,0.5-2.1,0.9-3.1c0.4-1,0.8-2,1.4-2.9c0.5-0.9,1.2-1.7,1.9-2.4
		c0.7-0.7,1.5-1.2,2.4-1.7c0.9-0.4,1.8-0.6,2.9-0.6c1.4,0,2.7,0.3,3.9,0.9c1.2,0.6,2.2,1.5,3.1,2.5c0.9,1,1.7,2.3,2.4,3.6
		s1.2,2.8,1.7,4.3c0.4,1.5,0.8,3,1,4.5c0.2,1.5,0.3,2.9,0.3,4.2c0,2.2-0.3,4.3-0.9,6.2c-0.6,1.9-1.4,3.7-2.5,5.4
		c-1,1.7-2.3,3.2-3.8,4.5c-1.5,1.3-3.1,2.5-4.8,3.6c-1.7,1-3.6,1.9-5.6,2.6s-4,1.2-6,1.5L466.4,897.4z M478.5,862.6
		c-0.7,0-1.4,0.3-2.1,0.9s-1.3,1.3-1.9,2.2c-0.6,0.9-1,1.9-1.3,2.9s-0.5,2-0.5,3c0.1,1,0.4,1.7,0.9,2.4c0.5,0.6,1.1,1.1,1.9,1.5
		c0.8,0.4,1.6,0.7,2.6,0.9c1,0.2,1.9,0.3,2.9,0.4s2,0.1,2.9,0.1c1,0,1.8,0,2.6,0c0-0.9-0.1-1.8-0.2-2.9s-0.4-2.1-0.7-3.1
		s-0.7-2.1-1.2-3.1c-0.5-1-1-1.9-1.6-2.6c-0.6-0.8-1.2-1.4-2-1.8C480.1,862.8,479.4,862.6,478.5,862.6z"/>
	<path class="st3" d="M512.5,880.1c0,1.6-0.2,3.2-0.7,4.7s-1.1,3-2,4.4c-0.8,1.4-1.8,2.8-3,4.1c-1.2,1.3-2.4,2.5-3.8,3.7
		s-2.8,2.2-4.3,3.2c-1.5,1-3,1.9-4.6,2.7c-0.4-0.8-0.7-1.5-1-2.1c-0.3-0.6-0.7-1.3-1-2c1.2-0.7,2.5-1.4,3.8-2.3s2.6-1.8,3.8-2.8
		c1.2-1,2.4-2.1,3.4-3.2c1.1-1.1,2-2.3,2.7-3.6c0.8-1.2,1.3-2.5,1.7-3.9c0.3-1,0.4-1.9,0.4-2.9c0-0.4,0-0.8-0.1-1.3
		c-0.1-1-0.3-2.2-0.6-3.4c-0.3-1.2-0.6-2.4-0.9-3.5c-0.3-1.2-0.6-2.3-1-3.3c-0.3-1.1-0.6-2-0.8-2.8l4.4-1.3c0.7,2.2,1.5,4,2.2,5.6
		c0.7,1.6,1.5,2.8,2.3,3.8c0.8,1,1.6,1.7,2.4,2.2c0.8,0.5,1.8,0.7,2.7,0.7h0.6v4.5h-0.6c-0.3,0-0.7,0-1.1,0c-0.5,0-1-0.1-1.6-0.3
		s-1.2-0.5-1.8-0.9c-0.6-0.4-1.1-1-1.6-1.7V880.1z M510.6,851.1l-4.3,4.3l-4.3-4.3l4.3-4.3L510.6,851.1z"/>
	<path class="st3" d="M518.5,876.9c2.7,0,5.1-0.1,7.2-0.3s3.9-0.5,5.4-0.9c1.5-0.4,2.8-1,3.9-1.7c1.1-0.7,2-1.6,2.7-2.7
		c-1.3,0.1-2.5,0.2-3.6,0.2c-1.2,0-2.7-0.1-4.3-0.3c-1.6-0.2-3.1-0.7-4.4-1.6c-1.4-0.9-2.3-2-2.9-3.6c-0.4-1-0.6-2.1-0.6-3.4
		c0-0.7,0.1-1.5,0.2-2.4c0.2-1.2,0.5-2.4,1-3.6s1.1-2.3,1.9-3.4c0.8-1,1.7-1.8,2.7-2.5c1-0.6,2.1-1,3.3-1c1.2,0,2.4,0.3,3.4,0.8
		s2,1.2,2.8,2.1c0.8,0.9,1.6,1.9,2.2,3.1c0.6,1.2,1.2,2.4,1.6,3.7c0.4,1.3,0.8,2.6,1,3.9s0.3,2.6,0.3,3.7c0,1.9-0.3,3.6-0.9,5.1
		c-0.6,1.5-1.4,2.7-2.4,3.8c-1,1.1-2.3,1.9-3.7,2.6c-1.4,0.7-3,1.3-4.8,1.7c-1.7,0.4-3.6,0.7-5.6,0.9s-4,0.3-6.1,0.3h-1v-4.5H518.5z
		 M531,854.5c-0.3,0-0.7,0.1-1.2,0.4c-0.5,0.3-1,0.7-1.5,1.2s-1,1.2-1.4,2c-0.4,0.8-0.8,1.7-0.9,2.8c-0.1,0.5-0.1,1-0.1,1.4
		c0,0.8,0.2,1.5,0.6,2.1c0.4,0.7,1.1,1.2,2,1.5c0.9,0.4,2,0.6,3.1,0.7c1.2,0.1,2.3,0.1,3.4,0.1c0.4,0,0.9,0,1.4,0s1.1,0,1.8-0.1
		c0-0.7-0.1-1.5-0.3-2.3s-0.4-1.7-0.7-2.6c-0.3-0.9-0.7-1.8-1.1-2.6c-0.4-0.9-0.9-1.6-1.4-2.3c-0.5-0.7-1.1-1.2-1.7-1.6
		C532.3,854.7,531.7,854.5,531,854.5z M535,838.9l-4.3,4.3l-4.3-4.3l4.3-4.3L535,838.9z"/>
	<path class="st3" d="M551.4,881.5c0.2-3.2,0.3-6.2,0.4-8.9c0.1-2.8,0.1-5.5,0.1-8.1c0-3.6-0.1-7-0.2-10c-0.1-3-0.3-5.7-0.5-8
		c-0.2-2.3-0.3-4.2-0.5-5.7s-0.3-2.6-0.4-3.2l4.6-0.7c0.1,0.8,0.2,1.8,0.3,2.9c0.1,1.1,0.2,2.2,0.3,3.5c0.1,1.2,0.2,2.4,0.2,3.7
		c0.1,1.3,0.2,2.4,0.2,3.6c0.1,1.1,0.1,2.1,0.2,3c0,0.9,0.1,1.6,0.1,2.1c0,1.4,0.1,2.8,0.1,4.3s0,3.1,0,4.8c0,2.6,0,5.4-0.1,8.2
		c-0.1,2.8-0.2,5.9-0.4,9.1L551.4,881.5z"/>
	<path class="st3" d="M595.9,863.9c0.3,1,0.7,2.2,1.1,3.4c0.4,1.3,0.8,2.6,1.1,4s0.6,2.8,0.9,4.2c0.2,1.4,0.4,2.8,0.4,4
		c0,1.6-0.2,3.2-0.7,4.7c-0.5,1.5-1.1,3-2,4.4c-0.8,1.4-1.8,2.8-3,4s-2.4,2.5-3.8,3.7c-1.4,1.1-2.8,2.2-4.3,3.2s-3.1,1.9-4.6,2.7
		l-2-4.1c2-1,4-2.2,5.9-3.6c1.9-1.3,3.6-2.8,5.1-4.4s2.7-3.3,3.6-5.1c0.9-1.8,1.3-3.6,1.3-5.6c0-1-0.1-2.2-0.3-3.3s-0.5-2.4-0.8-3.6
		c-0.3-1.2-0.7-2.5-1.1-3.7s-0.8-2.4-1.1-3.6L595.9,863.9z M597.7,851.1l-4.3,4.3l-4.3-4.3l4.3-4.3L597.7,851.1z"/>
	<path class="st3" d="M622.2,881.5c-1.8,0-3.4-0.2-4.7-0.6c-1.4-0.4-2.6-1-3.6-1.8c-1-0.8-1.7-1.9-2.2-3.2c-0.5-1.3-0.8-2.9-0.8-4.8
		c0-1.4,0-3,0-4.8c0-1.8,0-3.6,0-5.5s0-3.8,0-5.8c0-2-0.1-3.9-0.1-5.7c-0.1-1.9-0.1-3.6-0.3-5.3c-0.1-1.7-0.3-3.1-0.4-4.4l4.5-0.8
		c0.2,1,0.3,2.2,0.4,3.6c0.1,1.4,0.2,2.9,0.3,4.5c0.1,1.6,0.1,3.3,0.2,5s0,3.4,0,5.1c0,2.4,0,4.7,0,6.9c0,0.7,0,1.5,0,2.2
		c0,1.5,0,3,0,4.4c0,1.3,0.1,2.3,0.3,3.1s0.6,1.5,1,2s1.2,0.8,2,1s1.8,0.3,3.1,0.3h0.8v4.5H622.2z"/>
	<path class="st3" d="M622.2,876.9c1.1,0,2.2-0.2,3.1-0.7c0.9-0.4,1.8-1,2.5-1.7c0.7-0.7,1.4-1.6,2-2.5c0.6-1,1.1-2,1.5-3
		c0.4-1.1,0.8-2.1,1.1-3.2c0.3-1.1,0.5-2.1,0.7-3.1l4.6,0.9c-0.2,0.5-0.3,1.1-0.6,1.9s-0.4,1.5-0.6,2.3c-0.2,0.8-0.4,1.6-0.5,2.4
		c-0.1,0.8-0.2,1.6-0.2,2.3c0,0.6,0.1,1.2,0.2,1.7c0.1,0.6,0.3,1.1,0.6,1.5c0.3,0.4,0.7,0.8,1.2,1.1c0.5,0.3,1.1,0.4,1.8,0.4
		c1,0,2-0.3,2.8-0.8c0.8-0.5,1.6-1.2,2.2-2.1s1.2-1.8,1.7-2.9c0.5-1.1,0.9-2.2,1.2-3.3c0.3-1.1,0.6-2.3,0.9-3.4
		c0.2-1.1,0.4-2.1,0.5-2.9c0.8,0.2,1.6,0.3,2.3,0.4c0.7,0.1,1.4,0.3,2.2,0.4v0c-0.1,0.4-0.2,1-0.3,1.6c-0.1,0.7-0.2,1.4-0.4,2.2
		s-0.2,1.6-0.3,2.4c-0.1,0.8-0.1,1.5-0.1,2.2c0,0.8,0.1,1.6,0.2,2.3c0.1,0.7,0.4,1.4,0.8,2c0.4,0.6,0.9,1,1.5,1.4
		c0.6,0.3,1.4,0.5,2.4,0.5c0.9,0,1.6-0.1,2.2-0.4c0.6-0.3,1.1-0.7,1.5-1.2c0.4-0.5,0.7-1.1,0.9-1.8c0.2-0.7,0.3-1.4,0.3-2.3
		c0-1.1-0.1-2.2-0.4-3.4c-0.3-1.2-0.6-2.4-1-3.6s-0.8-2.3-1.2-3.4c-0.4-1-0.8-1.9-1.2-2.6l4-2.2c0.2,0.3,0.4,0.8,0.7,1.4
		c0.3,0.6,0.6,1.3,0.9,2.1c0.3,0.8,0.6,1.6,1,2.6c0.3,0.9,0.6,1.9,0.9,2.9c0.3,1,0.5,2,0.7,3.1s0.2,2.1,0.2,3c0,1.6-0.2,3-0.7,4.3
		c-0.4,1.3-1.1,2.4-2,3.3c-0.9,0.9-2,1.6-3.3,2.1c-1.3,0.5-2.8,0.7-4.5,0.7c-0.1,0-0.1,0-0.2,0c-0.7,0-1.4-0.1-2.1-0.4
		c-0.7-0.2-1.4-0.6-2.1-1c-0.7-0.4-1.3-0.9-1.9-1.5c-0.6-0.6-1.1-1.2-1.6-1.9c-1.3,1.5-2.7,2.6-4.1,3.5c-1.5,0.9-3,1.3-4.6,1.3
		c-0.7,0-1.4-0.1-2.1-0.3c-0.7-0.2-1.4-0.5-2.1-0.9c-0.7-0.4-1.3-0.9-1.9-1.5c-0.6-0.6-1-1.3-1.4-2.1c-0.6,0.7-1.3,1.3-2,1.8
		c-0.7,0.6-1.4,1-2.2,1.4c-0.8,0.4-1.7,0.7-2.6,0.9c-0.9,0.2-2,0.3-3.1,0.3h-0.6v-4.5H622.2z"/>
	<path class="st3" d="M715,900.5c-1.7,0-3.4-0.1-5.1-0.2c-1.8-0.2-3.5-0.5-5.1-1c-1.6-0.5-3.1-1.2-4.5-2c-1.4-0.9-2.5-2.1-3.3-3.5
		c-1.8-2.6-2.7-6-2.7-10.2c0-0.2,0-0.5,0-0.7c0-0.2,0-0.5,0-0.7c0.1-2.6,0.6-5.4,1.3-8.4c0.8-3,1.9-6.3,3.3-9.9
		c0.8,0.3,1.5,0.6,2.2,0.9c0.7,0.3,1.3,0.6,2.1,0.8c-1.4,3.5-2.5,6.8-3.2,9.9c-0.7,3.1-1.1,5.8-1.1,8.1c0,3.1,0.6,5.6,1.9,7.5
		c0.6,0.8,1.2,1.5,2,2c0.7,0.5,1.5,1,2.4,1.4c0.8,0.4,1.7,0.6,2.6,0.8c0.9,0.2,1.8,0.3,2.6,0.4c0.9,0.1,1.7,0.1,2.5,0.1s1.5,0,2.2,0
		c0.6,0,1.4,0,2.5-0.1c1.1-0.1,2.2-0.3,3.5-0.5c1.3-0.2,2.5-0.5,3.8-0.9c1.3-0.4,2.5-0.9,3.5-1.4c1-0.6,1.9-1.2,2.6-2
		c0.7-0.8,1-1.7,1-2.7c0-0.3-0.1-0.6-0.3-1c-0.2-0.4-0.6-0.8-1.1-1.2c-0.5-0.4-1.2-0.9-2-1.3c-0.8-0.5-1.8-0.9-3-1.3
		c-0.7-0.2-1.4-0.5-2.1-0.7s-1.3-0.4-1.9-0.5c-0.6-0.2-1.2-0.3-1.7-0.4c-0.5-0.1-0.9-0.2-1.3-0.3l0.3-4.6l22.5,0v4.5H732
		c0.9,0.7,1.6,1.4,2.2,2.1s1,1.3,1.4,1.8c0.3,0.6,0.6,1.1,0.7,1.6c0.1,0.5,0.2,0.9,0.2,1.3c0,1.6-0.4,3-1.1,4.2
		c-0.7,1.2-1.7,2.3-2.8,3.2c-1.2,0.9-2.5,1.7-4,2.3c-1.5,0.6-3,1.1-4.6,1.5c-1.6,0.4-3.1,0.7-4.7,0.8
		C717.6,900.4,716.2,900.5,715,900.5z"/>
	<path class="st3" d="M740.8,876.9c1.1,0,2.2-0.2,3.1-0.7c0.9-0.4,1.8-1,2.5-1.7c0.7-0.7,1.4-1.6,2-2.5c0.6-1,1.1-2,1.5-3
		c0.4-1.1,0.8-2.1,1.1-3.2c0.3-1.1,0.5-2.1,0.7-3.1l4.6,0.9c-0.2,0.5-0.3,1.1-0.6,1.9s-0.4,1.5-0.6,2.3c-0.2,0.8-0.4,1.6-0.5,2.4
		c-0.1,0.8-0.2,1.6-0.2,2.3c0,0.6,0.1,1.2,0.2,1.7c0.1,0.6,0.3,1.1,0.6,1.5c0.3,0.4,0.7,0.8,1.2,1.1c0.5,0.3,1.1,0.4,1.8,0.4
		c1,0,2-0.3,2.8-0.8c0.8-0.5,1.6-1.2,2.2-2.1s1.2-1.8,1.7-2.9c0.5-1.1,0.9-2.2,1.2-3.3c0.3-1.1,0.6-2.3,0.9-3.4
		c0.2-1.1,0.4-2.1,0.5-2.9c0.8,0.2,1.6,0.3,2.3,0.4c0.7,0.1,1.4,0.3,2.2,0.4v0c-0.1,0.4-0.2,1-0.3,1.6c-0.1,0.7-0.2,1.4-0.4,2.2
		s-0.2,1.6-0.3,2.4c-0.1,0.8-0.1,1.5-0.1,2.2c0,0.8,0.1,1.6,0.2,2.3c0.1,0.7,0.4,1.4,0.8,2c0.4,0.6,0.9,1,1.5,1.4
		c0.6,0.3,1.4,0.5,2.4,0.5c0.9,0,1.6-0.1,2.2-0.4c0.6-0.3,1.1-0.7,1.5-1.2c0.4-0.5,0.7-1.1,0.9-1.8c0.2-0.7,0.3-1.4,0.3-2.3
		c0-1.1-0.1-2.2-0.4-3.4c-0.3-1.2-0.6-2.4-1-3.6s-0.8-2.3-1.2-3.4c-0.4-1-0.8-1.9-1.2-2.6l4-2.2c0.2,0.3,0.4,0.8,0.7,1.4
		c0.3,0.6,0.6,1.3,0.9,2.1c0.3,0.8,0.6,1.6,1,2.6c0.3,0.9,0.6,1.9,0.9,2.9c0.3,1,0.5,2,0.7,3.1s0.2,2.1,0.2,3c0,1.6-0.2,3-0.7,4.3
		c-0.4,1.3-1.1,2.4-2,3.3c-0.9,0.9-2,1.6-3.3,2.1c-1.3,0.5-2.8,0.7-4.5,0.7c-0.1,0-0.1,0-0.2,0c-0.7,0-1.4-0.1-2.1-0.4
		c-0.7-0.2-1.4-0.6-2.1-1c-0.7-0.4-1.3-0.9-1.9-1.5c-0.6-0.6-1.1-1.2-1.6-1.9c-1.3,1.5-2.7,2.6-4.1,3.5c-1.5,0.9-3,1.3-4.6,1.3
		c-0.7,0-1.4-0.1-2.1-0.3c-0.7-0.2-1.4-0.5-2.1-0.9c-0.7-0.4-1.3-0.9-1.9-1.5c-0.6-0.6-1-1.3-1.4-2.1c-0.6,0.7-1.3,1.3-2,1.8
		c-0.7,0.6-1.4,1-2.2,1.4c-0.8,0.4-1.7,0.7-2.6,0.9c-0.9,0.2-2,0.3-3.1,0.3h-0.6v-4.5H740.8z"/>
	<path class="st3" d="M803.1,863.9c0.3,1,0.7,2.2,1.1,3.4c0.4,1.3,0.8,2.6,1.1,4s0.6,2.8,0.9,4.2c0.2,1.4,0.4,2.8,0.4,4
		c0,1.6-0.2,3.2-0.7,4.7c-0.5,1.5-1.1,3-2,4.4c-0.8,1.4-1.8,2.8-3,4s-2.4,2.5-3.8,3.7c-1.4,1.1-2.8,2.2-4.3,3.2s-3.1,1.9-4.6,2.7
		l-2-4.1c2-1,4-2.2,5.9-3.6c1.9-1.3,3.6-2.8,5.1-4.4s2.7-3.3,3.6-5.1c0.9-1.8,1.3-3.6,1.3-5.6c0-1-0.1-2.2-0.3-3.3s-0.5-2.4-0.8-3.6
		c-0.3-1.2-0.7-2.5-1.1-3.7s-0.8-2.4-1.1-3.6L803.1,863.9z"/>
	<path class="st3" d="M828.8,881.5c-1.8,0-3.4-0.2-4.7-0.6c-1.4-0.4-2.6-1-3.6-1.8c-1-0.8-1.7-1.9-2.2-3.2c-0.5-1.3-0.8-2.9-0.8-4.8
		c0-1.4,0-3,0-4.8c0-1.8,0-3.6,0-5.5s0-3.8,0-5.8c0-2-0.1-3.9-0.1-5.7c-0.1-1.9-0.1-3.6-0.3-5.3c-0.1-1.7-0.3-3.1-0.4-4.4l4.5-0.8
		c0.2,1,0.3,2.2,0.4,3.6c0.1,1.4,0.2,2.9,0.3,4.5c0.1,1.6,0.1,3.3,0.2,5s0,3.4,0,5.1c0,2.4,0,4.7,0,6.9c0,0.7,0,1.5,0,2.2
		c0,1.5,0,3,0,4.4c0,1.3,0.1,2.3,0.3,3.1s0.6,1.5,1,2s1.2,0.8,2,1s1.8,0.3,3.1,0.3h0.8v4.5H828.8z"/>
	<path class="st3" d="M828.8,876.9c2.7,0,5.1-0.1,7.2-0.3s3.9-0.5,5.4-0.9c1.5-0.4,2.8-1,3.9-1.7c1.1-0.7,2-1.6,2.7-2.7
		c-1.3,0.1-2.5,0.2-3.6,0.2c-1.2,0-2.7-0.1-4.3-0.3c-1.6-0.2-3.1-0.7-4.4-1.6c-1.4-0.9-2.3-2-2.9-3.6c-0.4-1-0.6-2.1-0.6-3.4
		c0-0.7,0.1-1.5,0.2-2.4c0.2-1.2,0.5-2.4,1-3.6s1.1-2.3,1.9-3.4c0.8-1,1.7-1.8,2.7-2.5c1-0.6,2.1-1,3.3-1c1.2,0,2.4,0.3,3.4,0.8
		s2,1.2,2.8,2.1c0.8,0.9,1.6,1.9,2.2,3.1c0.6,1.2,1.2,2.4,1.6,3.7c0.4,1.3,0.8,2.6,1,3.9s0.3,2.6,0.3,3.7c0,1.9-0.3,3.6-0.9,5.1
		c-0.6,1.5-1.4,2.7-2.4,3.8c-1,1.1-2.3,1.9-3.7,2.6c-1.4,0.7-3,1.3-4.8,1.7c-1.7,0.4-3.6,0.7-5.6,0.9s-4,0.3-6.1,0.3h-1v-4.5H828.8z
		 M841.2,854.5c-0.3,0-0.7,0.1-1.2,0.4c-0.5,0.3-1,0.7-1.5,1.2s-1,1.2-1.4,2c-0.4,0.8-0.8,1.7-0.9,2.8c-0.1,0.5-0.1,1-0.1,1.4
		c0,0.8,0.2,1.5,0.6,2.1c0.4,0.7,1.1,1.2,2,1.5c0.9,0.4,2,0.6,3.1,0.7c1.2,0.1,2.3,0.1,3.4,0.1c0.4,0,0.9,0,1.4,0s1.1,0,1.8-0.1
		c0-0.7-0.1-1.5-0.3-2.3s-0.4-1.7-0.7-2.6c-0.3-0.9-0.7-1.8-1.1-2.6c-0.4-0.9-0.9-1.6-1.4-2.3c-0.5-0.7-1.1-1.2-1.7-1.6
		C842.5,854.7,841.9,854.5,841.2,854.5z M845.3,838.9l-4.3,4.3l-4.3-4.3l4.3-4.3L845.3,838.9z"/>
</g>
<g>
	<path class="st3" d="M387.5,701.7h-2.7c-6.8,0-12.8-1.1-18-3.4c-5.2-2.3-9.9-5.7-14.1-10.2c-1.2,2.3-3,4.2-5.4,5.7
		c-2.3,1.6-5,2.8-8,3.8s-6.3,1.8-9.7,2.3c-3.5,0.6-7,1-10.6,1.2c-3.6,0.3-7,0.4-10.5,0.4c-3.4,0-6.5,0.1-9.4,0.1
		c-4.7-0.1-9.4-0.3-14.2-0.6s-9.3-0.8-13.7-1.5c-4.4-0.8-8.5-1.9-12.3-3.4c-3.8-1.5-7.2-3.5-10-6c-2.8-2.6-5.1-5.8-6.7-9.6
		c-1.6-3.9-2.5-8.5-2.5-14c0-1.8,0.2-3.8,0.6-5.9c0.4-2.1,0.9-4.3,1.6-6.4c0.7-2.1,1.5-4.1,2.5-6.1c1-1.9,2-3.7,3.2-5.1l15.1,11
		c-0.6,0.9-1.2,1.9-1.8,3c-0.7,1.1-1.3,2.3-1.9,3.5c-0.6,1.2-1.1,2.5-1.5,3.8s-0.6,2.5-0.6,3.6c0,1.8,0.7,3.4,2.2,4.7
		c1.4,1.4,3.4,2.5,5.8,3.5c2.4,1,5.3,1.8,8.5,2.5c3.2,0.7,6.6,1.2,10.2,1.6c3.6,0.4,7.2,0.7,10.9,0.9c3.7,0.2,7.2,0.3,10.6,0.3
		c2.5,0,5.2-0.1,8.1-0.2c2.9-0.1,5.8-0.3,8.8-0.6c2.9-0.3,5.8-0.8,8.5-1.4c2.7-0.6,5.2-1.4,7.3-2.4c2.1-1,3.8-2.2,5.1-3.6
		c1.3-1.4,1.9-3.2,1.9-5.2c0-2-0.6-4-1.7-6.2c-1.1-2.2-2.6-4.4-4.5-6.6c-1.9-2.2-4-4.5-6.3-6.7c-2.3-2.2-4.7-4.4-7.1-6.4
		c-2.4-2-4.7-3.9-7-5.7s-4.2-3.3-5.8-4.5l2-17.4l59-24.7l7.2,17.8l-49,19.9c3.1,2.4,6,4.9,8.8,7.4c2.8,2.5,5.5,5,7.9,7.7
		c2.5,2.6,4.8,5.4,6.8,8.3c2.1,2.9,3.9,6,5.6,9.3c1.2,2.5,2.6,5,4.1,7.6c1.5,2.5,3.2,4.8,5,6.9c1.9,2,4.1,3.7,6.5,5
		c2.4,1.3,5.2,2,8.4,2h2.7V701.7z"/>
	<path class="st3" d="M445.5,681.5v20.2h-60.5v-20.2H445.5z"/>
	<path class="st3" d="M442.9,681.5h15.3c1.8,0,3.9-0.1,6.1-0.3c2.2-0.2,4.3-0.6,6.2-1.2c1.9-0.6,3.6-1.5,4.9-2.7
		c1.3-1.2,1.9-2.7,1.9-4.6c0-1-0.3-2.5-0.9-4.6c-0.6-2-1.4-4.3-2.4-6.8c-1-2.5-2.1-5.1-3.4-7.8c-1.3-2.7-2.5-5.3-3.7-7.8l18.3-9.1
		c1.2,2.7,2.4,5.5,3.5,8.6c1.2,3,2.2,6.1,3.2,9.2s1.7,6.2,2.3,9.3c0.6,3.1,0.9,6,0.9,8.9c0,5.3-1,9.8-2.9,13.5
		c-1.9,3.7-4.6,6.7-7.9,9c-3.3,2.3-7.2,4-11.7,5s-9.3,1.6-14.4,1.6h-15.2V681.5z M468.7,722.7l12-12l12.4,12.3l-12.3,12.3
		l-12.1-12.1l-12,12l-12.4-12.3l12.3-12.3L468.7,722.7z M457.2,741.4l11.4-11.4l11.4,11.4l-11.4,11.4L457.2,741.4z"/>
	<path class="st3" d="M594.7,701.7c-0.9,0-2.2-0.1-3.7-0.2c-1.5-0.1-3.3-0.6-5.2-1.4c-0.9,5.3-2.7,10.3-5.3,15.1
		c-2.6,4.8-5.8,9.2-9.6,13.4c-3.8,4.2-8.1,8-13,11.5c-4.9,3.5-10,6.6-15.5,9.4l-11.7-16.2c3-1.5,6.1-3.2,9.1-5
		c3.1-1.8,6-3.7,8.8-5.8s5.4-4.1,7.8-6.3c2.4-2.2,4.5-4.5,6.3-6.8c1.8-2.3,3.2-4.7,4.2-7.2c1-2.5,1.5-4.9,1.5-7.4
		c0-1.7-0.3-3.8-1-6.3c-0.6-2.6-1.4-5.3-2.4-8.2c-1-2.9-2.1-5.9-3.3-8.9c-1.2-3-2.3-5.7-3.5-8.2l18.5-8.1c1.7,5.1,3.3,9.4,4.9,12.8
		c1.6,3.4,3.1,6.1,4.5,8.2c1.4,2,2.8,3.5,4.2,4.3c1.3,0.8,2.7,1.2,4,1.2h1.5v20.2H594.7z"/>
	<path class="st3" d="M650.4,681.5v20.2h-1.5c-2,0-4.1-0.2-6-0.5c-2-0.3-3.8-0.8-5.6-1.4c-1.7-0.6-3.4-1.4-4.8-2.2
		c-1.5-0.9-2.7-1.8-3.8-2.7c-2,1.5-4.3,2.7-6.9,3.6s-5.3,1.6-8.2,2.1c-2.9,0.5-5.8,0.8-8.9,1c-3,0.1-6,0.2-9,0.2h-2.4v-20.2h2.4
		c3.1,0,5.8-0.1,8.2-0.3c2.4-0.2,4.5-0.5,6.3-0.9s3.3-1,4.6-1.7c1.2-0.7,2.2-1.6,3-2.7c1-1.4,1.6-2.9,1.8-4.5
		c0.2-1.7,0.3-3.4,0.1-5.1c-0.2-1.8-0.5-3.5-1-5.3c-0.5-1.8-0.9-3.5-1.3-5.1l18.6-5.3c0.5,1.9,0.9,3.7,1.3,5.2
		c0.4,1.6,0.7,3.1,1,4.6c0.3,1.5,0.5,3,0.7,4.5c0.2,1.5,0.4,3.2,0.7,5c0.2,1.2,0.4,2.4,0.7,3.7c0.3,1.3,0.7,2.6,1.4,3.7
		s1.5,2.1,2.7,2.9c1.1,0.8,2.6,1.2,4.4,1.2H650.4z M623.2,625.6l-12,12l-12.4-12.3l12.3-12.3l12.1,12.1l12-12l12.4,12.3l-12.3,12.3
		L623.2,625.6z"/>
	<path class="st3" d="M649.1,681.5c2.3,0,4.4-0.4,6.3-1.1c2-0.7,3.8-2.2,5.6-4.3c1.7-2.1,3.4-5.1,4.9-9c1.5-3.9,3-8.9,4.4-15.2
		l16.9,2.4c0,0.2-0.1,0.5-0.2,0.8c-0.3,1.1-0.6,2.6-0.9,4.5c-0.4,1.9-0.7,4.1-1,6.5c-0.3,2.4-0.5,4.7-0.4,6.9c0,2.2,0.3,4.1,0.8,5.7
		c0.5,1.6,1.4,2.5,2.6,2.8c1.3,0.3,2.6,0.1,3.8-0.8c1.2-0.9,2.4-2.1,3.5-3.8c1.1-1.6,2.1-3.6,3.1-5.8c0.9-2.2,1.8-4.4,2.6-6.7
		c0.8-2.3,1.4-4.6,2-6.8c0.6-2.2,1-4.2,1.3-5.9l16.9,2.4c-0.1,1.1-0.2,2.5-0.4,4.3c-0.2,1.8-0.4,3.7-0.5,5.7c-0.1,2-0.2,4-0.2,6
		c0,2,0.2,3.9,0.7,5.5c0.4,1.6,1.1,3,2,4s2.1,1.6,3.7,1.6c1.4,0,2.6-0.5,3.6-1.4c1-0.9,1.9-2.2,2.6-3.7c0.7-1.5,1.3-3.2,1.7-5.2
		c0.4-1.9,0.7-3.9,1-5.9c0.2-2,0.3-4,0.3-5.8c0-1.9-0.1-3.6-0.2-5l17.3-2.4l2.1,18c0.3,2,0.8,3.7,1.7,5.1c0.9,1.4,1.9,2.7,3,3.6
		c1.2,1,2.4,1.7,3.6,2.2c1.3,0.5,2.5,0.7,3.6,0.7h2v20.2h-2c-4.1,0-8-0.7-11.7-2.2c-3.7-1.4-6.8-3.9-9.5-7.4
		c-0.3,0.3-0.5,0.6-0.8,0.9c-0.3,0.3-0.5,0.5-0.7,0.8v-0.1c-2.3,2.4-5,4.4-8,5.8s-6.2,2.1-9.7,2.1c-3.9,0-7.4-0.8-10.7-2.5
		c-3.3-1.7-6-3.9-8.2-6.8c-2.6,2.8-5.5,5.1-8.7,6.8c-3.2,1.7-6.8,2.6-10.7,2.6c-3.6,0-7-0.8-10.1-2.4c-3.1-1.6-5.7-3.8-7.7-6.6
		c-2.3,3.2-5.1,5.5-8.5,6.8c-3.4,1.4-7.6,2-12.6,2h-1.3v-20.2H649.1z M687.3,654.3L687.3,654.3C687.4,653.9,687.4,653.9,687.3,654.3
		z"/>
	<path class="st3" d="M821.6,701.5c-2.6,0-5.2-0.3-7.9-0.8c-2.7-0.5-5.4-1.2-8-2.1s-5.1-1.9-7.5-3.1c-2.4-1.2-4.5-2.4-6.4-3.6
		c-1.4,1.9-2.9,3.4-4.5,4.7c-1.6,1.3-3.3,2.3-5.1,3s-3.8,1.3-5.9,1.6c-2.1,0.3-4.4,0.5-6.8,0.5h-3.2v-20.2h3.2
		c2.8,0,5.2-0.6,7.1-1.7c1.9-1.2,3.6-2.6,4.9-4.4c1.4-1.8,2.6-3.8,3.6-6c1-2.2,2.1-4.3,3.2-6.4c1.3-2.6,2.7-5.2,4.3-7.8
		c1.6-2.6,3.4-4.9,5.5-7c2.1-2.1,4.4-3.8,7.1-5.1c2.6-1.3,5.6-1.9,8.9-1.9c4.5,0,8.3,1,11.5,3.1c3.2,2.1,5.9,4.8,8,8.1
		s3.6,7.1,4.6,11.4c1,4.2,1.5,8.5,1.5,12.8c0,3.6-0.5,7-1.6,10c-1.1,3.1-2.4,5.7-4.2,7.9c-1.7,2.2-3.6,4-5.8,5.2
		C825.9,700.9,823.8,701.5,821.6,701.5z M813.4,660.6c-1.2,0-2.4,0.5-3.5,1.4c-1.1,1-2.1,2.1-3,3.5c-0.9,1.4-1.8,2.9-2.5,4.6
		s-1.4,3.2-2,4.6c1.4,0.9,3,1.7,4.8,2.5c1.8,0.8,3.6,1.4,5.6,2c1.9,0.6,3.9,1.1,5.8,1.4c2,0.4,3.8,0.7,5.6,0.8
		c0.2-2.6,0.1-5.2-0.4-7.7c-0.5-2.5-1.2-4.8-2.2-6.7c-1-2-2.2-3.5-3.6-4.8C816.6,661.2,815.1,660.6,813.4,660.6z"/>
</g>
</svg>
